<svg xmlns="http://www.w3.org/2000/svg" viewBox="0 0 1024 1024">
  <defs>
    <!-- Background gradient -->
    <linearGradient id="bg" x1="0%" y1="0%" x2="100%" y2="100%">
      <stop offset="0%" stop-color="#1a1a2e"/>
      <stop offset="100%" stop-color="#16213e"/>
    </linearGradient>
    <!-- Clip to rounded rect so background outside is transparent -->
    <clipPath id="roundclip">
      <rect x="0" y="0" width="1024" height="1024" rx="220" ry="220"/>
    </clipPath>
    <!-- Lens ring gradient -->
    <linearGradient id="ring" x1="0%" y1="0%" x2="100%" y2="100%">
      <stop offset="0%" stop-color="#4a90d9"/>
      <stop offset="50%" stop-color="#64b5f6"/>
      <stop offset="100%" stop-color="#4a90d9"/>
    </linearGradient>
    <!-- Aperture blade gradient -->
    <linearGradient id="blade" x1="0%" y1="0%" x2="100%" y2="100%">
      <stop offset="0%" stop-color="#2c5282"/>
      <stop offset="100%" stop-color="#3b82c4"/>
    </linearGradient>
    <!-- AI sparkle glow -->
    <radialGradient id="glow" cx="50%" cy="50%" r="50%">
      <stop offset="0%" stop-color="#fbbf24" stop-opacity="0.9"/>
      <stop offset="50%" stop-color="#f59e0b" stop-opacity="0.5"/>
      <stop offset="100%" stop-color="#f59e0b" stop-opacity="0"/>
    </radialGradient>
    <!-- Inner lens gradient -->
    <radialGradient id="lens" cx="45%" cy="40%" r="55%">
      <stop offset="0%" stop-color="#1e3a5f"/>
      <stop offset="60%" stop-color="#0f2744"/>
      <stop offset="100%" stop-color="#0a1628"/>
    </radialGradient>
  </defs>

  <!-- All content clipped to rounded rect for transparent corners -->
  <g clip-path="url(#roundclip)">

  <!-- Rounded square background -->
  <rect x="0" y="0" width="1024" height="1024" fill="url(#bg)"/>

  <!-- Outer lens ring -->
  <circle cx="512" cy="512" r="380" fill="none" stroke="url(#ring)" stroke-width="32" opacity="0.9"/>

  <!-- Inner lens ring -->
  <circle cx="512" cy="512" r="340" fill="none" stroke="#2c5282" stroke-width="4" opacity="0.5"/>

  <!-- Aperture blades (6 blades) -->
  <g opacity="0.85">
    <!-- Blade 1 -->
    <path d="M512 172 L620 340 L404 340 Z" fill="url(#blade)" transform="rotate(0, 512, 512)"/>
    <!-- Blade 2 -->
    <path d="M512 172 L620 340 L404 340 Z" fill="url(#blade)" transform="rotate(60, 512, 512)"/>
    <!-- Blade 3 -->
    <path d="M512 172 L620 340 L404 340 Z" fill="url(#blade)" transform="rotate(120, 512, 512)"/>
    <!-- Blade 4 -->
    <path d="M512 172 L620 340 L404 340 Z" fill="url(#blade)" transform="rotate(180, 512, 512)"/>
    <!-- Blade 5 -->
    <path d="M512 172 L620 340 L404 340 Z" fill="url(#blade)" transform="rotate(240, 512, 512)"/>
    <!-- Blade 6 -->
    <path d="M512 172 L620 340 L404 340 Z" fill="url(#blade)" transform="rotate(300, 512, 512)"/>
  </g>

  <!-- Inner dark lens circle -->
  <circle cx="512" cy="512" r="180" fill="url(#lens)"/>

  <!-- Subtle lens reflection -->
  <ellipse cx="470" cy="460" rx="80" ry="50" fill="white" opacity="0.04" transform="rotate(-20, 470, 460)"/>

  <!-- AI Sparkle - 4-pointed star -->
  <g transform="translate(512, 512)">
    <!-- Glow behind sparkle -->
    <circle cx="0" cy="0" r="90" fill="url(#glow)"/>

    <!-- Main 4-pointed star -->
    <path d="M0 -70 C8 -20, 20 -8, 70 0 C20 8, 8 20, 0 70 C-8 20, -20 8, -70 0 C-20 -8, -8 -20, 0 -70Z"
          fill="#fbbf24" opacity="0.95"/>

    <!-- Smaller rotated star overlay -->
    <path d="M0 -40 C5 -12, 12 -5, 40 0 C12 5, 5 12, 0 40 C-5 12, -12 5, -40 0 C-12 -5, -5 -12, 0 -40Z"
          fill="#fde68a" opacity="0.8"
          transform="rotate(45)"/>

    <!-- Bright center dot -->
    <circle cx="0" cy="0" r="8" fill="white" opacity="0.9"/>
  </g>

  <!-- Small accent sparkles -->
  <g fill="#fbbf24" opacity="0.6">
    <path d="M0 -12 C2 -4, 4 -2, 12 0 C4 2, 2 4, 0 12 C-2 4, -4 2, -12 0 C-4 -2, -2 -4, 0 -12Z"
          transform="translate(640, 380)"/>
    <path d="M0 -8 C1.5 -3, 3 -1.5, 8 0 C3 1.5, 1.5 3, 0 8 C-1.5 3, -3 1.5, -8 0 C-3 -1.5, -1.5 -3, 0 -8Z"
          transform="translate(380, 640)"/>
    <path d="M0 -6 C1 -2, 2 -1, 6 0 C2 1, 1 2, 0 6 C-1 2, -2 1, -6 0 C-2 -1, -1 -2, 0 -6Z"
          transform="translate(660, 620)"/>
  </g>

  <!-- Subtle outer glow ring -->
  <circle cx="512" cy="512" r="395" fill="none" stroke="#64b5f6" stroke-width="1.5" opacity="0.3"/>

  </g><!-- end clip-path group -->
</svg>
